<svg width="374" height="138" viewBox="0 0 374 138" fill="none" xmlns="http://www.w3.org/2000/svg">
<rect width="374" height="138" fill="white"/>
<path d="M44.4257 81.3002C28.1825 81.3002 16 75.4455 16 60.3366V23.3196H34.177V59.77C34.177 64.6804 38.0444 67.7022 44.8125 67.7022C51.1938 67.7022 55.4479 64.4915 55.4479 59.77V23.3196H73.6249V61.6586C73.4316 74.8789 61.2491 81.3002 44.4257 81.3002Z" fill="#1764E7"/>
<path d="M120.156 39.3934C119.201 37.4799 117.483 36.9058 115.001 36.9058H99.9179V48.7698H115.383C117.674 48.7698 119.392 48.1958 120.156 46.8563C120.538 45.8995 120.729 44.3687 120.729 43.0292C120.729 41.6897 120.538 40.1589 120.156 39.3934ZM135.621 52.5969C133.712 55.6586 131.23 57.5722 128.366 58.1462L141.921 81.3002H122.065L111.755 61.782H99.727V81.3002H82.162V23.3196H119.01C126.838 23.3196 131.802 25.6159 134.857 29.443C137.148 32.3133 138.294 36.3318 138.294 41.6897C138.103 46.2822 137.148 49.918 135.621 52.5969Z" fill="#1764E7"/>
<path d="M215.453 30.2766H203.857V38.2846L215.453 55.7881V30.2766Z" fill="#1764E7"/>
<path d="M275.702 39.3934C274.745 37.4799 273.021 36.9058 270.531 36.9058H255.399V48.7698H270.914C273.212 48.7698 274.936 48.1958 275.702 46.8563C276.085 45.8995 276.277 44.3687 276.277 43.0292C276.277 41.6897 276.277 40.1589 275.702 39.3934ZM291.217 52.5969C289.301 55.6586 286.811 57.5722 283.938 58.1462L297.537 81.3002H277.426L267.083 61.782H255.016V81.3002H237.778V23.3196H274.745C282.598 23.3196 287.578 25.6159 290.642 29.443C292.941 32.3133 294.09 36.3318 294.09 41.6897C293.898 46.2822 292.749 49.918 291.217 52.5969Z" fill="#1764E7"/>
<path d="M332.366 81.3002C316.122 81.3002 303.94 75.4455 303.94 60.3365V23.3196H322.117V59.77C322.117 64.6804 325.984 67.7022 332.752 67.7022C339.134 67.7022 343.388 64.4915 343.388 59.77V23.3196H361.565V61.6586C361.372 74.8789 349.189 81.3002 332.366 81.3002Z" fill="#1764E7"/>
<path d="M31.633 111.45V93.4747H28.8427V99.9896C28.1326 101.497 26.4136 102.456 24.3956 102.456C21.8793 102.456 20.3347 100.799 20.3347 98.0961V93.4747H17.5444V98.3204C17.5444 102.319 20.1852 104.947 24.134 104.947C26.0025 104.947 27.597 104.337 28.743 103.216H28.8427V111.45H31.633Z" fill="#1764E7"/>
<path d="M37.6247 111.45L44.0898 101.846H44.1894V111.45H46.8427V97.9217H44.1894L37.7244 107.489H37.6247V97.9217H34.9714V111.45H37.6247Z" fill="#1764E7"/>
<path d="M60.0968 97.9217H48.8856V100.064H53.1583V111.45H55.8241V100.064H60.0968V97.9217Z" fill="#1764E7"/>
<path d="M66.4995 109.432C64.9424 109.432 63.9334 108.684 63.9334 107.526C63.9334 106.33 64.8926 105.645 66.7362 105.533L70.0248 105.309V106.367C70.0248 108.149 68.5051 109.432 66.4995 109.432ZM65.777 111.587C67.6207 111.587 69.3023 110.665 70.0497 109.195H70.112V111.45H72.6906V102.17C72.6906 99.4913 70.5605 97.7474 67.2594 97.7474C64.2199 97.7474 61.9528 99.5162 61.8781 101.908H64.4068C64.6435 100.737 65.7148 99.9771 67.1847 99.9771C68.9909 99.9771 70.0248 100.824 70.0248 102.369V103.415L66.375 103.627C63.0366 103.839 61.2054 105.209 61.2054 107.576C61.2054 109.992 63.0739 111.587 65.777 111.587Z" fill="#1764E7"/>
<path d="M77.3619 91.9799C77.3619 94.3342 79.0311 95.9287 81.4975 95.9287C83.9764 95.9287 85.6456 94.3342 85.6456 91.9799H83.8269C83.8145 93.3875 82.9176 94.4463 81.4975 94.4463C80.0899 94.4463 79.193 93.3875 79.1805 91.9799H77.3619ZM78.184 111.45L84.6491 101.846H84.7487V111.45H87.402V97.9217H84.7487L78.2837 107.489H78.184V97.9217H75.5307V111.45H78.184Z" fill="#1764E7"/>
<path d="M100.656 97.9217H89.4449V100.064H93.7176V111.45H96.3834V100.064H100.656V97.9217Z" fill="#1764E7"/>
<path d="M108.118 99.9522C110.086 99.9522 111.419 101.347 111.481 103.453H104.617C104.767 101.372 106.174 99.9522 108.118 99.9522ZM111.469 107.489C111.095 108.672 109.862 109.419 108.292 109.419C106.075 109.419 104.605 107.875 104.605 105.533V105.371H114.184V104.424C114.184 100.326 111.842 97.7474 108.13 97.7474C104.343 97.7474 101.877 100.5 101.877 104.736C101.877 108.971 104.318 111.612 108.242 111.612C111.282 111.612 113.661 109.918 114.047 107.489H111.469Z" fill="#1764E7"/>
<path d="M131.487 111.45H134.165V97.9217H131.487V103.378H125.146V97.9217H122.468V111.45H125.146V105.52H131.487V111.45Z" fill="#1764E7"/>
<path d="M141.888 109.432C140.331 109.432 139.322 108.684 139.322 107.526C139.322 106.33 140.281 105.645 142.125 105.533L145.413 105.309V106.367C145.413 108.149 143.894 109.432 141.888 109.432ZM141.166 111.587C143.009 111.587 144.691 110.665 145.438 109.195H145.5V111.45H148.079V102.17C148.079 99.4913 145.949 97.7474 142.648 97.7474C139.608 97.7474 137.341 99.5162 137.267 101.908H139.795C140.032 100.737 141.103 99.9771 142.573 99.9771C144.379 99.9771 145.413 100.824 145.413 102.369V103.415L141.763 103.627C138.425 103.839 136.594 105.209 136.594 107.576C136.594 109.992 138.462 111.587 141.166 111.587Z" fill="#1764E7"/>
<path d="M162.429 102.232C162.056 99.7653 159.95 97.7474 156.649 97.7474C152.825 97.7474 150.321 100.475 150.321 104.686C150.321 108.971 152.838 111.612 156.674 111.612C159.813 111.612 162.043 109.843 162.454 107.177H159.851C159.452 108.572 158.331 109.345 156.687 109.345C154.519 109.345 153.049 107.601 153.049 104.686C153.049 101.846 154.494 100.027 156.674 100.027C158.393 100.027 159.489 100.961 159.826 102.232H162.429Z" fill="#1764E7"/>
<path d="M179.607 109.307H173.379V109.208C174.014 108.336 174.338 106.928 174.45 105.321L174.836 100.052H179.607V109.307ZM171.822 115V111.45H181.899V115H184.391V109.307H182.273V97.9217H172.507L172.009 105.209C171.884 107.028 171.436 108.684 170.439 109.307H169.343V115H171.822Z" fill="#1764E7"/>
<path d="M192.089 111.612C196 111.612 198.479 108.946 198.479 104.686C198.479 100.426 195.988 97.7474 192.089 97.7474C188.19 97.7474 185.686 100.438 185.686 104.686C185.686 108.946 188.177 111.612 192.089 111.612ZM192.089 109.37C189.797 109.37 188.427 107.638 188.427 104.686C188.427 101.746 189.797 99.9896 192.089 99.9896C194.381 99.9896 195.739 101.734 195.739 104.686C195.739 107.638 194.381 109.37 192.089 109.37Z" fill="#1764E7"/>
<path d="M203.524 111.45V102.02H203.624L207.722 110.939H209.703L213.813 102.02H213.913V111.45H216.517V97.9217H213.253L208.806 107.937H208.706L204.284 97.9217H200.921V111.45H203.524Z" fill="#1764E7"/>
<path d="M224.227 109.432C222.67 109.432 221.661 108.684 221.661 107.526C221.661 106.33 222.62 105.645 224.464 105.533L227.753 105.309V106.367C227.753 108.149 226.233 109.432 224.227 109.432ZM223.505 111.587C225.348 111.587 227.03 110.665 227.778 109.195H227.84V111.45H230.418V102.17C230.418 99.4913 228.288 97.7474 224.987 97.7474C221.948 97.7474 219.681 99.5162 219.606 101.908H222.135C222.371 100.737 223.443 99.9771 224.912 99.9771C226.719 99.9771 227.753 100.824 227.753 102.369V103.415L224.103 103.627C220.764 103.839 218.933 105.209 218.933 107.576C218.933 109.992 220.802 111.587 223.505 111.587Z" fill="#1764E7"/>
<path fill-rule="evenodd" clip-rule="evenodd" d="M194.498 81.3003C194.553 80.9214 194.581 80.5341 194.581 80.1402C194.581 75.6571 190.946 72.0229 186.463 72.0229C181.98 72.0229 178.346 75.6571 178.346 80.1402C178.346 80.5341 178.374 80.9214 178.428 81.3003H194.498Z" fill="#1764E7"/>
<path fill-rule="evenodd" clip-rule="evenodd" d="M227.05 81.3099L185.782 21L144.514 81.3099H165.858L185.782 52.1931L205.705 81.3099H227.05Z" fill="#1764E7"/>
</svg>
